<svg version="1" xmlns="http://www.w3.org/2000/svg" width="933.333" height="933.333" viewBox="0 0 700.000000 700.000000"><path d="M276.8.5c-.2.1-3.7.5-7.8.9-14.6 1.2-19 1.9-32 4.7-5.2 1.1-10.6 2.2-12 2.5-8.9 1.7-36.3 11.3-49 17.1-23.4 10.6-39.4 20-60 35.2C98.6 73.7 76.6 95.3 64 112c-1.9 2.5-3.7 4.7-4.1 5-.9.8-12.2 17.7-17 25.5-14.6 23.9-31 64.5-35.5 88-.2 1.1-.8 4-1.4 6.5-1.1 4.9-1.7 8.3-2.6 14.5-.3 2.2-.8 5.1-1 6.5-1.9 11.6-2.6 49.8-1.2 65 2.4 26 7.5 48.5 17.2 75.7 7.2 20.3 21 46.9 34.4 66.3 15.4 22.5 36.1 44.9 55.7 60.5 2.8 2.2 5.2 4.2 5.5 4.5 1.6 1.8 22.1 15.5 30.5 20.5 29.1 17.1 70.6 32.7 98.5 37 1.9.3 6 1 9 1.5s8.7 1.2 12.5 1.6c3.9.3 8.6.8 10.5 1 4.8.5 30.8.5 40 0 12.1-.6 29.4-2.7 33.8-4 .9-.3 3.7-.8 6.2-1.1 11.2-1.5 37.1-9.4 54.9-16.7 11.1-4.5 32.4-15.7 43.3-22.7 5.2-3.4 10-6.1 10.5-6.1.6 0 34.3 33.1 74.9 73.6 40.7 40.5 76.2 75.1 78.9 77 8.6 5.8 15.5 7.7 28 7.8 9.8.1 11.9-.2 18.9-2.8 6.8-2.5 14.6-7.5 20.2-13 3.2-3.2 8.9-11.7 11-16.4 6.6-14.8 5.3-34.4-3.1-48.8-1.8-3.2-29.5-31.6-77.6-79.7l-74.8-74.9 1.8-2.6c17.3-25.1 32.3-57.6 40.1-86.7 5.1-19.4 7.8-35.2 9.5-57.5.6-7.5.6-35.4.1-41.5-.3-2.8-.8-7.9-1.1-11.5-.5-5.7-2.8-20.8-4-26.5-10.6-49.4-32.5-94.9-63.8-132.5-16.8-20.1-41.7-42.2-63.2-56-38.6-24.8-84.2-41.7-125-46.5-2.7-.3-6.6-.8-8.5-1.1-3.7-.5-48.6-1.4-49.2-.9zM310 108.4c5.2.3 10.4.7 11.5 1 1.1.2 4.3.7 7 1 7.1 1 23.2 5.2 31.7 8.2 24.5 8.7 48.6 24.3 69.1 45 40.8 40.8 58.6 89.7 54.4 148.9-3.2 44.6-21.4 83.4-54.6 116.4-12.8 12.7-23.9 21.6-37 29.5-9.4 5.7-27.8 14.6-30.2 14.6-.8 0-1.9.4-2.5.8-.9.9-13.5 4.7-18.9 5.7-11.2 2.2-19.5 3.6-24.8 4.1-7.7.9-32.6.8-38.9 0-2.7-.3-6.8-.9-9.2-1.2-2.5-.3-8.4-1.4-13.3-2.5-4.8-1.1-9.9-2.2-11.3-2.4-1.4-.3-3.4-1-4.5-1.5s-4.9-1.9-8.5-3.1c-12.9-4.5-38.6-18.9-48.2-27.1-1.5-1.3-4.1-3.4-5.9-4.8-6.7-5.1-24-23.5-30.6-32.3-22.3-29.8-33.2-58.2-36.9-96.2-1-11.2-.3-34.2 1.6-45.8.6-3.9 1.3-8.1 1.5-9.2.8-4.9 4.7-18.7 7.4-26.1 9.3-25.3 24.7-48.8 45.3-69.1 12.4-12.2 19.8-18 40.3-31.1 3.5-2.2 18.9-9.3 24.5-11.4 3-1.1 6.4-2.3 7.5-2.8 6.7-3 30.3-7.5 45-8.6 5-.3 9.1-.7 9.2-.8.2-.2 8.3.2 19.3.8z"/></svg>